# xmcd
#
# Track frame offsets: 
#        150
#        13385
#        23555
#        36861
#        49868
#        61983
#        74655
#        87753
#        100344
#        110737
#        122283
#        134840
#        147705
#        161400
#        172884
#        184211
#        197344
#        209640
#        220659
#        237036
#
# Disc length: 3356 seconds
#
# Revision: 0
# Processed by: cddbd v1.5.2PL0 Copyright (c) Steve Scherf et al.
# Submitted via: ExactAudioCopy v0.95b4
#
DISCID=270d1a14
DTITLE=Jackie Wilson - Best Of The Original Soul Brother [CD1)
DYEAR=2006
DGENRE=Soul
TTITLE0=I Get The Sweetest Feeling
TTITLE1=Nothing But Blue Skies
TTITLE2=(Your Love Keeps Lifting Me) Higher and Higher
TTITLE3=The Who Who Song
TTITLE4=I've Lost You
TTITLE5=A Woman Needs To Be Loved
TTITLE6=Just Be Sincere
TTITLE7=I Don't Want To Lose You
TTITLE8=Whispers (Gettin' Louder)
TTITLE9=I'm The One To Do It
TTITLE10=You Brought About A Change In Me
TTITLE11=I Was Made To Love Her
TTITLE12=Think About The Good Times
TTITLE13=You Left The Fire Burning
TTITLE14=Love Uprising
TTITLE15=(I Can Feel Those Vibrations) This Love Is Real
TTITLE16=You Got Me Walking
TTITLE17=Hard To Get A Thing Called Love
TTITLE18=Beautiful Day
TTITLE19=Because Of You
EXTD=
EXTT0=
EXTT1=
EXTT2=
EXTT3=
EXTT4=
EXTT5=
EXTT6=
EXTT7=
EXTT8=
EXTT9=
EXTT10=
EXTT11=
EXTT12=
EXTT13=
EXTT14=
EXTT15=
EXTT16=
EXTT17=
EXTT18=
EXTT19=
PLAYORDER=
